<svg width="116" height="28" viewBox="0 0 116 28" fill="none" xmlns="http://www.w3.org/2000/svg">
<path d="M15.4961 16.9277V11.8828C15.4961 11.1914 15.3613 10.541 15.0918 9.93164C14.834 9.31055 14.4766 8.77148 14.0195 8.31445C13.5625 7.85742 13.0234 7.5 12.4023 7.24219C11.793 6.97266 11.1426 6.83789 10.4512 6.83789C9.75977 6.83789 9.10352 6.97266 8.48242 7.24219C7.87305 7.5 7.33984 7.85742 6.88281 8.31445C6.42578 8.77148 6.0625 9.31055 5.79297 9.93164C5.53516 10.541 5.40625 11.1914 5.40625 11.8828V16.9277H15.4961ZM20.541 27H15.4961V21.9551H5.40625V27H0.378906V11.8828C0.378906 10.4883 0.642578 9.18164 1.16992 7.96289C1.69727 6.73242 2.41211 5.66016 3.31445 4.74609C4.22852 3.83203 5.29492 3.11133 6.51367 2.58398C7.74414 2.05664 9.05664 1.79297 10.4512 1.79297C11.8457 1.79297 13.1523 2.05664 14.3711 2.58398C15.6016 3.11133 16.6738 3.83203 17.5879 4.74609C18.502 5.66016 19.2227 6.73242 19.75 7.96289C20.2773 9.18164 20.541 10.4883 20.541 11.8828V27ZM29.207 27H24.4082V8.17383H25.5684L27.1504 10.4062C27.9238 9.70312 28.8027 9.16406 29.7871 8.78906C30.7715 8.40234 31.791 8.20898 32.8457 8.20898H37.082V12.9902H32.8457C32.3418 12.9902 31.8672 13.084 31.4219 13.2715C30.9766 13.459 30.5898 13.7168 30.2617 14.0449C29.9336 14.373 29.6758 14.7598 29.4883 15.2051C29.3008 15.6504 29.207 16.125 29.207 16.6289V27ZM48.7539 27C47.5938 27 46.5039 26.7832 45.4844 26.3496C44.4648 25.9043 43.5684 25.3008 42.7949 24.5391C42.0332 23.7656 41.4297 22.8691 40.9844 21.8496C40.5508 20.8301 40.334 19.7402 40.334 18.5801V12.9902H37.9961V8.20898H40.334V0.685547H45.1152V8.20898H52.3926V12.9902H45.1152V18.5801C45.1152 19.084 45.209 19.5586 45.3965 20.0039C45.584 20.4375 45.8418 20.8184 46.1699 21.1465C46.498 21.4746 46.8848 21.7383 47.3301 21.9375C47.7754 22.125 48.25 22.2188 48.7539 22.2188H52.3926V27H48.7539ZM62.5879 22.3945C62.7754 22.4531 62.9629 22.4941 63.1504 22.5176C63.3379 22.5293 63.5254 22.5352 63.7129 22.5352C64.1816 22.5352 64.6328 22.4707 65.0664 22.3418C65.5 22.2129 65.9043 22.0312 66.2793 21.7969C66.666 21.5508 67.0059 21.2578 67.2988 20.918C67.6035 20.5664 67.8496 20.1797 68.0371 19.7578L71.5527 23.291C71.1074 23.9238 70.5918 24.4922 70.0059 24.9961C69.4316 25.5 68.8047 25.9277 68.125 26.2793C67.457 26.6309 66.748 26.8945 65.998 27.0703C65.2598 27.2578 64.498 27.3516 63.7129 27.3516C62.3887 27.3516 61.1406 27.1055 59.9688 26.6133C58.8086 26.1211 57.7891 25.4355 56.9102 24.5566C56.043 23.6777 55.3574 22.6348 54.8535 21.4277C54.3496 20.209 54.0977 18.873 54.0977 17.4199C54.0977 15.9316 54.3496 14.5723 54.8535 13.3418C55.3574 12.1113 56.043 11.0625 56.9102 10.1953C57.7891 9.32812 58.8086 8.6543 59.9688 8.17383C61.1406 7.69336 62.3887 7.45312 63.7129 7.45312C64.498 7.45312 65.2656 7.54688 66.0156 7.73438C66.7656 7.92188 67.4746 8.19141 68.1426 8.54297C68.8223 8.89453 69.4551 9.32812 70.041 9.84375C70.627 10.3477 71.1426 10.916 71.5879 11.5488L62.5879 22.3945ZM65.0488 12.498C64.8262 12.416 64.6035 12.3633 64.3809 12.3398C64.1699 12.3164 63.9473 12.3047 63.7129 12.3047C63.0566 12.3047 62.4355 12.4277 61.8496 12.6738C61.2754 12.9082 60.7715 13.248 60.3379 13.6934C59.916 14.1387 59.582 14.6777 59.3359 15.3105C59.0898 15.9316 58.9668 16.6348 58.9668 17.4199C58.9668 17.5957 58.9727 17.7949 58.9844 18.0176C59.0078 18.2402 59.0371 18.4688 59.0723 18.7031C59.1191 18.9258 59.1719 19.1426 59.2305 19.3535C59.2891 19.5645 59.3652 19.752 59.459 19.916L65.0488 12.498ZM91.1699 27H85.2988L81.5547 21.2344L77.7754 27H71.9043L78.7773 17.3496L71.9043 8.06836H77.7754L81.5547 13.4648L85.2988 8.06836H91.1699L84.2793 17.3496L91.1699 27ZM99.5723 22.3945C99.7598 22.4531 99.9473 22.4941 100.135 22.5176C100.322 22.5293 100.51 22.5352 100.697 22.5352C101.166 22.5352 101.617 22.4707 102.051 22.3418C102.484 22.2129 102.889 22.0312 103.264 21.7969C103.65 21.5508 103.99 21.2578 104.283 20.918C104.588 20.5664 104.834 20.1797 105.021 19.7578L108.537 23.291C108.092 23.9238 107.576 24.4922 106.99 24.9961C106.416 25.5 105.789 25.9277 105.109 26.2793C104.441 26.6309 103.732 26.8945 102.982 27.0703C102.244 27.2578 101.482 27.3516 100.697 27.3516C99.373 27.3516 98.125 27.1055 96.9531 26.6133C95.793 26.1211 94.7734 25.4355 93.8945 24.5566C93.0273 23.6777 92.3418 22.6348 91.8379 21.4277C91.334 20.209 91.082 18.873 91.082 17.4199C91.082 15.9316 91.334 14.5723 91.8379 13.3418C92.3418 12.1113 93.0273 11.0625 93.8945 10.1953C94.7734 9.32812 95.793 8.6543 96.9531 8.17383C98.125 7.69336 99.373 7.45312 100.697 7.45312C101.482 7.45312 102.25 7.54688 103 7.73438C103.75 7.92188 104.459 8.19141 105.127 8.54297C105.807 8.89453 106.439 9.32812 107.025 9.84375C107.611 10.3477 108.127 10.916 108.572 11.5488L99.5723 22.3945ZM102.033 12.498C101.811 12.416 101.588 12.3633 101.365 12.3398C101.154 12.3164 100.932 12.3047 100.697 12.3047C100.041 12.3047 99.4199 12.4277 98.834 12.6738C98.2598 12.9082 97.7559 13.248 97.3223 13.6934C96.9004 14.1387 96.5664 14.6777 96.3203 15.3105C96.0742 15.9316 95.9512 16.6348 95.9512 17.4199C95.9512 17.5957 95.957 17.7949 95.9688 18.0176C95.9922 18.2402 96.0215 18.4688 96.0566 18.7031C96.1035 18.9258 96.1562 19.1426 96.2148 19.3535C96.2734 19.5645 96.3496 19.752 96.4434 19.916L102.033 12.498ZM115.832 27H110.998V0.685547H115.832V27Z" fill="white"/>
</svg>
